/* XPM */
static const char *PieGraph[] = {
/* columns rows colors chars-per-pixel */
"20 20 25 1",
"  c black",
". c #323232",
"X c #003250",
"o c #005000",
"O c #007325",
"+ c #004A73",
"@ c #730025",
"# c #5B5B5B",
"$ c #626262",
"% c #006296",
"& c #007AB9",
"* c #00B93D",
"= c #00DC49",
"- c #0092DC",
"; c #00AAFF",
": c #48B8FF",
"> c #6BC6FF",
", c #800000",
"< c #960031",
"1 c #DC0049",
"2 c #FF4873",
"3 c #8ED4FF",
"4 c #B1E2FF",
"5 c #FFB1C7",
"6 c None",
/* pixels */
"66666666666666666666",
"666666        666666",
"66666   .  .   66666",
"6666   ooOOoo   6666",
"666   O*==**OO   666",
"66   O*******O$   66",
"6#  %XO*****O$<<  #6",
"6  +&%XO***O$<2<@  6",
"6 .%4>%XO*O$<221@. 6",
"6  &33;%XO$<2511<  6",
"6  &;:3;%X<25111<  6",
"6 .%;::3;%X<1111@. 6",
"6  +-;::3;%X<11<@  6",
"6#  &-;::3;%X<<<  #6",
"66   &-;::3;%X<   66",
"666   &-;;;;&%   666",
"6666   +%&&%+   6666",
"66666   .  .   66666",
"666666#      #666666",
"66666666666666666666"
};
